<svg xmlns="http://www.w3.org/2000/svg" viewBox="0 0 256 256" width="256" height="256">
  <defs>
    <style>
      .cls-1 { fill: #1d2d44; }
      .cls-2 { fill: #41b6e6; }
    </style>
  </defs>
  <g id="owncloud-logo">
    <!-- Cloud shape -->
    <path class="cls-2" d="M195.5,120.5c-1.2-24.5-21.5-44-46.5-44c-15,0-28.5,7.2-37,18.5c-3.8-1.5-8-2.5-12.5-2.5c-18.8,0-34,15.2-34,34
      c0,2.2,0.2,4.3,0.6,6.3C50.5,135.5,40,148.8,40,164.5c0,19.3,15.7,35,35,35h115c19.3,0,35-15.7,35-35
      C225,144.2,212.2,126.8,195.5,120.5z"/>
    <!-- Letter 'o' -->
    <circle class="cls-1" cx="90" cy="150" r="12"/>
    <!-- Letter 'C' -->
    <path class="cls-1" d="M140,138c-9.9,0-18,8.1-18,18s8.1,18,18,18c6.2,0,11.7-3.2,14.9-8h-10.4c-1.8,1.2-3.9,2-6.2,2
      c-6.1,0-11-4.9-11-11s4.9-11,11-11c2.3,0,4.4,0.7,6.2,2h10.4C151.7,141.2,146.2,138,140,138z"/>
  </g>
</svg>
